<?xml version="1.0" encoding="iso-8859-1"?>
<!-- Generator: Adobe Illustrator 19.0.0, SVG Export Plug-In . SVG Version: 6.00 Build 0)  -->
<svg version="1.1" id="Layer_1" xmlns="http://www.w3.org/2000/svg" xmlns:xlink="http://www.w3.org/1999/xlink" x="0px" y="0px"
	 viewBox="0 0 512 512" style="enable-background:new 0 0 512 512;" xml:space="preserve">
<rect x="7.86" y="66.367" style="fill:#1D71B8;" width="496.277" height="288.165"/>
<rect x="39.874" y="98.392" style="fill:#A5C6E3;" width="432.247" height="224.125"/>
<rect x="376.066" y="298.508" style="fill:#36A9E1;" width="48.027" height="136.076"/>
<circle style="fill:#1D71B8;" cx="400.085" cy="266.483" r="40.021"/>
<rect x="336.045" y="130.407" style="fill:#36A9E1;" width="104.061" height="64.04"/>
<g>
	<polygon style="fill:#1D1D1B;" points="512,362.394 440.102,362.394 440.102,346.675 496.281,346.675 496.281,74.23 15.719,74.23 
		15.719,346.675 360.063,346.675 360.063,362.394 0,362.394 0,58.511 512,58.511 	"/>
	<rect x="63.891" y="122.547" style="fill:#1D1D1B;" width="208.122" height="15.719"/>
</g>
<rect x="63.891" y="154.562" style="fill:#FFFFFF;" width="96.055" height="15.719"/>
<g>
	<rect x="63.891" y="186.587" style="fill:#1D1D1B;" width="224.125" height="15.719"/>
	<path style="fill:#1D1D1B;" d="M400.081,314.366c-26.402,0-47.882-21.48-47.882-47.882c0-26.402,21.48-47.882,47.882-47.882
		c26.402,0,47.882,21.48,47.882,47.882C447.964,292.887,426.484,314.366,400.081,314.366z M400.081,234.321
		c-17.734,0-32.163,14.428-32.163,32.163s14.428,32.163,32.163,32.163c17.734,0,32.163-14.428,32.163-32.163
		C432.245,248.749,417.817,234.321,400.081,234.321z"/>
	<polygon style="fill:#1D1D1B;" points="368.209,453.489 368.209,298.503 383.928,298.503 383.928,431.679 400.081,426.295 
		416.235,431.679 416.235,298.503 431.955,298.503 431.955,453.489 400.081,442.865 	"/>
</g>
<g>
	<rect x="392.226" y="250.47" style="fill:#FFFFFF;" width="15.719" height="32.018"/>
	<rect x="223.978" y="282.642" style="fill:#FFFFFF;" width="80.042" height="15.719"/>
	<rect x="63.891" y="282.642" style="fill:#FFFFFF;" width="80.042" height="15.719"/>
</g>
<path style="fill:#1D1D1B;" d="M447.964,202.303H328.186v-79.755h119.778L447.964,202.303L447.964,202.303z M343.905,186.584h88.34
	v-48.317h-88.34V186.584z"/>
<rect x="352.058" y="154.562" style="fill:#FFFFFF;" width="72.046" height="15.719"/>
<g>
	<polygon style="fill:#1D1D1B;" points="479.982,330.375 440.104,330.375 440.104,314.656 464.263,314.656 464.263,106.248 
		47.737,106.248 47.737,314.656 360.059,314.656 360.059,330.375 32.018,330.375 32.018,90.529 479.982,90.529 	"/>
	<rect x="63.891" y="218.602" style="fill:#1D1D1B;" width="224.125" height="15.719"/>
</g>
<g>
</g>
<g>
</g>
<g>
</g>
<g>
</g>
<g>
</g>
<g>
</g>
<g>
</g>
<g>
</g>
<g>
</g>
<g>
</g>
<g>
</g>
<g>
</g>
<g>
</g>
<g>
</g>
<g>
</g>
</svg>
